<?xml version="1.0" encoding="UTF-8"?>
<svg xmlns="http://www.w3.org/2000/svg" xmlns:xlink="http://www.w3.org/1999/xlink" width="20pt" height="20pt" viewBox="0 0 20 20" version="1.1">
<g id="surface1">
<path style=" stroke:none;fill-rule:nonzero;fill:rgb(13.72549%,12.156863%,12.54902%);fill-opacity:1;" d="M 19.128906 0 L 0.871094 0 C 0.390625 0 0 0.390625 0 0.871094 L 0 19.128906 C 0 19.609375 0.390625 20 0.867188 20 L 19.128906 20 C 19.609375 20 20 19.609375 20 19.128906 L 20 0.871094 C 20 0.390625 19.609375 0 19.128906 0 Z M 6.957031 13.914062 L 6.957031 9.566406 L 13.042969 9.566406 L 13.042969 13.914062 Z M 13.042969 14.78125 L 13.042969 19.128906 L 6.957031 19.128906 L 6.957031 14.78125 Z M 13.042969 4.347656 L 13.042969 8.695312 L 6.957031 8.695312 L 6.957031 4.347656 Z M 19.128906 4.347656 L 19.128906 8.695312 L 13.914062 8.695312 L 13.914062 4.347656 Z M 6.085938 8.695312 L 0.871094 8.695312 L 0.871094 4.347656 L 6.085938 4.347656 Z M 0.871094 9.566406 L 6.085938 9.566406 L 6.085938 13.914062 L 0.871094 13.914062 Z M 13.914062 9.566406 L 19.128906 9.566406 L 19.128906 13.914062 L 13.914062 13.914062 Z M 19.128906 0.871094 L 19.128906 3.476562 L 0.871094 3.476562 L 0.871094 0.871094 Z M 0.871094 14.78125 L 6.085938 14.78125 L 6.085938 19.128906 L 0.871094 19.128906 Z M 13.914062 19.128906 L 13.914062 14.78125 L 19.128906 14.78125 L 19.128906 19.128906 Z M 13.914062 19.128906 "/>
</g>
</svg>
